<mxfile host="app.diagrams.net" modified="2023-04-24T23:50:01.253Z" agent="Mozilla/5.0 (Windows NT 10.0; Win64; x64) AppleWebKit/537.36 (KHTML, like Gecko) Chrome/112.0.0.0 Safari/537.36" etag="4jYpVcaWkUbdZJ0DKg3G" version="21.2.1" type="github">
  <diagram name="第 1 页" id="ZspxYVCgmG6Df7MXZEJ3">
    <mxGraphModel dx="2074" dy="1116" grid="1" gridSize="10" guides="1" tooltips="1" connect="1" arrows="1" fold="1" page="1" pageScale="1" pageWidth="827" pageHeight="1169" math="0" shadow="0">
      <root>
        <mxCell id="0" />
        <mxCell id="1" parent="0" />
        <mxCell id="7vtI9p7YiHXPgLecszBX-6" style="edgeStyle=orthogonalEdgeStyle;rounded=0;orthogonalLoop=1;jettySize=auto;html=1;entryX=0;entryY=0.5;entryDx=0;entryDy=0;entryPerimeter=0;" edge="1" parent="1" source="7vtI9p7YiHXPgLecszBX-1" target="7vtI9p7YiHXPgLecszBX-5">
          <mxGeometry relative="1" as="geometry" />
        </mxCell>
        <mxCell id="7vtI9p7YiHXPgLecszBX-11" value="uToken" style="edgeLabel;html=1;align=center;verticalAlign=middle;resizable=0;points=[];" vertex="1" connectable="0" parent="7vtI9p7YiHXPgLecszBX-6">
          <mxGeometry x="-0.8263" y="1" relative="1" as="geometry">
            <mxPoint as="offset" />
          </mxGeometry>
        </mxCell>
        <mxCell id="7vtI9p7YiHXPgLecszBX-21" style="edgeStyle=orthogonalEdgeStyle;rounded=0;orthogonalLoop=1;jettySize=auto;html=1;entryX=1;entryY=0.5;entryDx=0;entryDy=0;" edge="1" parent="1" source="7vtI9p7YiHXPgLecszBX-1" target="7vtI9p7YiHXPgLecszBX-20">
          <mxGeometry relative="1" as="geometry" />
        </mxCell>
        <mxCell id="7vtI9p7YiHXPgLecszBX-1" value="项目1" style="rounded=1;whiteSpace=wrap;html=1;" vertex="1" parent="1">
          <mxGeometry x="240" y="360" width="120" height="60" as="geometry" />
        </mxCell>
        <mxCell id="7vtI9p7YiHXPgLecszBX-7" style="edgeStyle=orthogonalEdgeStyle;rounded=0;orthogonalLoop=1;jettySize=auto;html=1;entryX=0;entryY=0.5;entryDx=0;entryDy=0;entryPerimeter=0;" edge="1" parent="1" source="7vtI9p7YiHXPgLecszBX-2" target="7vtI9p7YiHXPgLecszBX-5">
          <mxGeometry relative="1" as="geometry" />
        </mxCell>
        <mxCell id="7vtI9p7YiHXPgLecszBX-12" value="uToken" style="edgeLabel;html=1;align=center;verticalAlign=middle;resizable=0;points=[];" vertex="1" connectable="0" parent="7vtI9p7YiHXPgLecszBX-7">
          <mxGeometry x="-0.7428" y="1" relative="1" as="geometry">
            <mxPoint as="offset" />
          </mxGeometry>
        </mxCell>
        <mxCell id="7vtI9p7YiHXPgLecszBX-22" style="edgeStyle=orthogonalEdgeStyle;rounded=0;orthogonalLoop=1;jettySize=auto;html=1;" edge="1" parent="1" source="7vtI9p7YiHXPgLecszBX-2">
          <mxGeometry relative="1" as="geometry">
            <mxPoint x="130" y="520" as="targetPoint" />
          </mxGeometry>
        </mxCell>
        <mxCell id="7vtI9p7YiHXPgLecszBX-2" value="项目2" style="rounded=1;whiteSpace=wrap;html=1;" vertex="1" parent="1">
          <mxGeometry x="240" y="460" width="120" height="60" as="geometry" />
        </mxCell>
        <mxCell id="7vtI9p7YiHXPgLecszBX-8" style="edgeStyle=orthogonalEdgeStyle;rounded=0;orthogonalLoop=1;jettySize=auto;html=1;entryX=0;entryY=0.5;entryDx=0;entryDy=0;entryPerimeter=0;" edge="1" parent="1" source="7vtI9p7YiHXPgLecszBX-3" target="7vtI9p7YiHXPgLecszBX-5">
          <mxGeometry relative="1" as="geometry" />
        </mxCell>
        <mxCell id="7vtI9p7YiHXPgLecszBX-13" value="uToken" style="edgeLabel;html=1;align=center;verticalAlign=middle;resizable=0;points=[];" vertex="1" connectable="0" parent="7vtI9p7YiHXPgLecszBX-8">
          <mxGeometry x="-0.7582" relative="1" as="geometry">
            <mxPoint as="offset" />
          </mxGeometry>
        </mxCell>
        <mxCell id="7vtI9p7YiHXPgLecszBX-23" style="edgeStyle=orthogonalEdgeStyle;rounded=0;orthogonalLoop=1;jettySize=auto;html=1;entryX=1;entryY=0.5;entryDx=0;entryDy=0;" edge="1" parent="1" source="7vtI9p7YiHXPgLecszBX-3" target="7vtI9p7YiHXPgLecszBX-20">
          <mxGeometry relative="1" as="geometry" />
        </mxCell>
        <mxCell id="7vtI9p7YiHXPgLecszBX-3" value="......" style="rounded=1;whiteSpace=wrap;html=1;" vertex="1" parent="1">
          <mxGeometry x="240" y="560" width="120" height="60" as="geometry" />
        </mxCell>
        <mxCell id="7vtI9p7YiHXPgLecszBX-9" style="edgeStyle=orthogonalEdgeStyle;rounded=0;orthogonalLoop=1;jettySize=auto;html=1;entryX=0;entryY=0.5;entryDx=0;entryDy=0;entryPerimeter=0;" edge="1" parent="1" source="7vtI9p7YiHXPgLecszBX-4" target="7vtI9p7YiHXPgLecszBX-5">
          <mxGeometry relative="1" as="geometry" />
        </mxCell>
        <mxCell id="7vtI9p7YiHXPgLecszBX-14" value="uToken" style="edgeLabel;html=1;align=center;verticalAlign=middle;resizable=0;points=[];" vertex="1" connectable="0" parent="7vtI9p7YiHXPgLecszBX-9">
          <mxGeometry x="-0.839" relative="1" as="geometry">
            <mxPoint as="offset" />
          </mxGeometry>
        </mxCell>
        <mxCell id="7vtI9p7YiHXPgLecszBX-19" value="push资金" style="edgeLabel;html=1;align=center;verticalAlign=middle;resizable=0;points=[];" vertex="1" connectable="0" parent="7vtI9p7YiHXPgLecszBX-9">
          <mxGeometry x="0.6495" y="-2" relative="1" as="geometry">
            <mxPoint as="offset" />
          </mxGeometry>
        </mxCell>
        <mxCell id="7vtI9p7YiHXPgLecszBX-24" style="edgeStyle=orthogonalEdgeStyle;rounded=0;orthogonalLoop=1;jettySize=auto;html=1;entryX=1;entryY=0.5;entryDx=0;entryDy=0;" edge="1" parent="1" source="7vtI9p7YiHXPgLecszBX-4" target="7vtI9p7YiHXPgLecszBX-20">
          <mxGeometry relative="1" as="geometry" />
        </mxCell>
        <mxCell id="7vtI9p7YiHXPgLecszBX-4" value="项目n" style="rounded=1;whiteSpace=wrap;html=1;" vertex="1" parent="1">
          <mxGeometry x="240" y="650" width="120" height="60" as="geometry" />
        </mxCell>
        <mxCell id="7vtI9p7YiHXPgLecszBX-16" style="edgeStyle=orthogonalEdgeStyle;rounded=0;orthogonalLoop=1;jettySize=auto;html=1;entryX=0.5;entryY=1;entryDx=0;entryDy=0;" edge="1" parent="1" source="7vtI9p7YiHXPgLecszBX-5" target="7vtI9p7YiHXPgLecszBX-15">
          <mxGeometry relative="1" as="geometry" />
        </mxCell>
        <mxCell id="7vtI9p7YiHXPgLecszBX-17" value="验证项目是否承认分红账户" style="edgeLabel;html=1;align=center;verticalAlign=middle;resizable=0;points=[];" vertex="1" connectable="0" parent="7vtI9p7YiHXPgLecszBX-16">
          <mxGeometry x="-0.2533" y="1" relative="1" as="geometry">
            <mxPoint as="offset" />
          </mxGeometry>
        </mxCell>
        <mxCell id="7vtI9p7YiHXPgLecszBX-5" value="分红账户" style="shape=cylinder3;whiteSpace=wrap;html=1;boundedLbl=1;backgroundOutline=1;size=15;" vertex="1" parent="1">
          <mxGeometry x="560" y="490" width="60" height="80" as="geometry" />
        </mxCell>
        <mxCell id="7vtI9p7YiHXPgLecszBX-15" value="验证模块" style="ellipse;whiteSpace=wrap;html=1;aspect=fixed;" vertex="1" parent="1">
          <mxGeometry x="550" y="310" width="80" height="80" as="geometry" />
        </mxCell>
        <mxCell id="7vtI9p7YiHXPgLecszBX-25" style="edgeStyle=orthogonalEdgeStyle;rounded=0;orthogonalLoop=1;jettySize=auto;html=1;entryX=0.5;entryY=0;entryDx=0;entryDy=0;exitX=0.5;exitY=0;exitDx=0;exitDy=0;" edge="1" parent="1" source="7vtI9p7YiHXPgLecszBX-20" target="7vtI9p7YiHXPgLecszBX-15">
          <mxGeometry relative="1" as="geometry" />
        </mxCell>
        <mxCell id="7vtI9p7YiHXPgLecszBX-26" value="项目承认分红账户" style="edgeLabel;html=1;align=center;verticalAlign=middle;resizable=0;points=[];" vertex="1" connectable="0" parent="7vtI9p7YiHXPgLecszBX-25">
          <mxGeometry x="0.2469" y="2" relative="1" as="geometry">
            <mxPoint as="offset" />
          </mxGeometry>
        </mxCell>
        <mxCell id="7vtI9p7YiHXPgLecszBX-20" value="" style="ellipse;whiteSpace=wrap;html=1;aspect=fixed;" vertex="1" parent="1">
          <mxGeometry x="110" y="510" width="20" height="20" as="geometry" />
        </mxCell>
        <mxCell id="7vtI9p7YiHXPgLecszBX-28" style="edgeStyle=orthogonalEdgeStyle;rounded=0;orthogonalLoop=1;jettySize=auto;html=1;entryX=0.5;entryY=1;entryDx=0;entryDy=0;entryPerimeter=0;" edge="1" parent="1" source="7vtI9p7YiHXPgLecszBX-27" target="7vtI9p7YiHXPgLecszBX-5">
          <mxGeometry relative="1" as="geometry">
            <Array as="points">
              <mxPoint x="590" y="620" />
              <mxPoint x="590" y="620" />
            </Array>
          </mxGeometry>
        </mxCell>
        <mxCell id="7vtI9p7YiHXPgLecszBX-29" value="登记项目" style="edgeLabel;html=1;align=center;verticalAlign=middle;resizable=0;points=[];" vertex="1" connectable="0" parent="7vtI9p7YiHXPgLecszBX-28">
          <mxGeometry x="-0.2392" y="-1" relative="1" as="geometry">
            <mxPoint as="offset" />
          </mxGeometry>
        </mxCell>
        <mxCell id="7vtI9p7YiHXPgLecszBX-27" value="owner" style="shape=process;whiteSpace=wrap;html=1;backgroundOutline=1;" vertex="1" parent="1">
          <mxGeometry x="530" y="655" width="120" height="50" as="geometry" />
        </mxCell>
      </root>
    </mxGraphModel>
  </diagram>
</mxfile>
